<?xml version="1.0" encoding="UTF-8"?>
<!-- Generator: https://ezgif.com/png-to-svg -->
<svg version="1.1" xmlns="http://www.w3.org/2000/svg" width="512" height="512">
<path d="M0 0 C1.17 -0.01 2.35 -0.01 3.55 -0.02 C6.78 -0.03 10 -0.03 13.23 -0.02 C16.72 -0.01 20.21 -0.03 23.7 -0.04 C30.52 -0.05 37.34 -0.06 44.17 -0.05 C49.72 -0.05 55.27 -0.05 60.81 -0.05 C61.61 -0.05 62.4 -0.05 63.21 -0.05 C64.82 -0.06 66.43 -0.06 68.04 -0.06 C83.1 -0.07 98.16 -0.07 113.23 -0.06 C126.99 -0.05 140.75 -0.06 154.51 -0.08 C168.66 -0.11 182.82 -0.12 196.97 -0.11 C204.91 -0.11 212.84 -0.11 220.78 -0.13 C227.53 -0.14 234.29 -0.14 241.05 -0.12 C244.49 -0.12 247.93 -0.11 251.37 -0.13 C255.11 -0.14 258.86 -0.13 262.6 -0.11 C263.67 -0.12 264.75 -0.13 265.85 -0.14 C278.75 -0.02 290.25 4.61 299.89 13.2 C312.32 26.3 313.15 41.98 313.49 59.01 C313.53 60.61 313.56 62.2 313.6 63.79 C313.7 67.66 313.78 71.52 313.86 75.39 C314.45 75.04 315.04 74.69 315.64 74.33 C323.45 69.81 330.03 68.2 338.99 70.33 C345.39 72.6 350.8 76.59 354.08 82.64 C358.48 93.51 362.13 104.65 365.86 115.76 C366.61 117.98 367.36 120.2 368.11 122.42 C369.25 125.79 370.39 129.16 371.53 132.53 C375.13 143.2 378.77 153.86 382.42 164.51 C382.98 166.15 383.54 167.78 384.1 169.41 C385.36 173.07 386.61 176.73 387.86 180.39 C388.8 180.23 389.73 180.07 390.69 179.9 C401.94 178.08 413.65 179.39 423.17 186.08 C431.29 192.9 437.83 200.75 439.86 211.39 C440.81 225.36 438.8 235.54 430.08 246.93 C425.75 251.72 420.57 254.55 414.86 257.39 C417.42 267.6 420.82 277.54 424.17 287.51 C424.79 289.35 425.4 291.19 426.02 293.03 C431.11 308.24 436.29 323.42 441.51 338.59 C441.79 339.42 442.08 340.25 442.37 341.11 C442.9 342.66 443.44 344.21 443.97 345.76 C446.9 354.29 448.15 361.49 444.97 370.15 C441.64 376.88 436.52 381.19 429.86 384.39 C422.92 386.7 415.06 386.4 408.42 383.33 C401.44 379.3 397.47 373.93 394.86 366.39 C394.86 365.4 394.86 364.41 394.86 363.39 C394.2 363.15 393.53 362.91 392.85 362.66 C389.85 361.38 387.12 359.89 384.3 358.27 C362.95 346.01 341.22 336.89 317.68 329.83 C316.78 329.56 315.88 329.29 314.95 329.01 C314.26 328.81 313.57 328.6 312.86 328.39 C312.87 329.04 312.87 329.7 312.87 330.37 C312.94 346.32 312.99 362.27 313.02 378.22 C313.03 385.94 313.05 393.65 313.09 401.37 C313.12 408.1 313.14 414.82 313.14 421.55 C313.15 425.11 313.16 428.67 313.18 432.23 C313.2 436.21 313.2 440.2 313.2 444.18 C313.22 445.93 313.22 445.93 313.24 447.71 C313.18 463.14 308.86 474.84 298.32 486.09 C294.54 489.62 290.59 492.31 285.86 494.39 C284.96 494.79 284.96 494.79 284.04 495.2 C274.11 498.9 262.94 497.83 252.51 497.82 C249.79 497.83 247.08 497.85 244.36 497.88 C243.54 497.88 242.72 497.87 241.88 497.86 C236.5 497.93 232.59 499.06 227.79 501.48 C225.26 502.67 223.14 502.92 220.36 502.89 C219.53 502.9 218.69 502.91 217.83 502.92 C215 502.41 213.29 501.66 210.76 500.39 C205.88 498.19 201.8 497.83 196.51 497.9 C195.61 497.89 194.71 497.89 193.79 497.88 C190.8 497.87 187.82 497.89 184.84 497.91 C182.69 497.9 180.54 497.9 178.39 497.89 C173.77 497.88 169.15 497.89 164.53 497.9 C157.23 497.92 149.92 497.91 142.61 497.9 C125.77 497.87 108.93 497.88 92.1 497.89 C76.67 497.9 61.24 497.9 45.81 497.87 C38.55 497.86 31.3 497.86 24.04 497.88 C19.51 497.89 14.99 497.89 10.46 497.87 C8.37 497.87 6.28 497.88 4.19 497.89 C-12.63 497.98 -25.55 496.23 -38.36 484.32 C-50.36 471.78 -51.44 457 -51.4 440.56 C-51.4 438.84 -51.41 437.12 -51.41 435.4 C-51.42 430.69 -51.42 425.98 -51.41 421.26 C-51.41 416.18 -51.42 411.09 -51.43 406.01 C-51.44 396.05 -51.44 386.09 -51.44 376.13 C-51.44 368.03 -51.44 359.94 -51.44 351.84 C-51.44 350.69 -51.45 349.54 -51.45 348.35 C-51.45 346.01 -51.45 343.66 -51.45 341.32 C-51.46 319.37 -51.46 297.41 -51.45 275.45 C-51.45 255.37 -51.46 235.29 -51.48 215.21 C-51.5 194.59 -51.51 173.96 -51.5 153.34 C-51.5 141.76 -51.5 130.18 -51.52 118.61 C-51.53 108.75 -51.53 98.9 -51.52 89.04 C-51.51 84.01 -51.51 78.99 -51.52 73.96 C-51.53 69.36 -51.53 64.75 -51.52 60.14 C-51.51 58.48 -51.52 56.82 -51.52 55.16 C-51.59 41.47 -50.29 29.81 -42.14 18.39 C-41.63 17.68 -41.13 16.97 -40.61 16.24 C-30.59 3.5 -15.44 -0.09 0 0 Z " fill="#C9DDEE" transform="translate(58.13768005371094,4.6123199462890625)"/>
<path d="M0 0 C4.21 4.11 6.34 8.92 8.39 14.34 C8.69 15.12 8.99 15.9 9.29 16.7 C12.95 26.4 16.18 36.25 19.42 46.09 C21.27 51.71 23.13 57.33 24.99 62.94 C25.36 64.04 25.72 65.13 26.09 66.26 C30.34 79.08 34.74 91.84 39.2 104.59 C40.07 104.43 40.95 104.27 41.85 104.11 C53.19 102.35 64.89 103.52 74.51 110.28 C82.62 117.1 89.17 124.95 91.2 135.59 C92.15 149.56 90.13 159.74 81.42 171.14 C77.09 175.92 71.9 178.75 66.2 181.59 C68.75 191.81 72.16 201.74 75.51 211.71 C76.12 213.55 76.74 215.39 77.35 217.23 C82.44 232.44 87.62 247.62 92.84 262.79 C93.12 263.62 93.41 264.45 93.7 265.31 C94.24 266.86 94.77 268.41 95.31 269.96 C98.23 278.49 99.49 285.69 96.3 294.35 C92.98 301.08 87.85 305.39 81.2 308.59 C74.26 310.9 66.4 310.6 59.76 307.53 C52.77 303.5 48.81 298.13 46.2 290.59 C46.2 289.6 46.2 288.61 46.2 287.59 C45.53 287.35 44.87 287.11 44.18 286.86 C41.18 285.58 38.45 284.09 35.63 282.47 C15.96 271.18 -4.09 262.15 -25.8 255.59 C-27.19 255.16 -28.58 254.72 -29.96 254.29 C-43.11 250.3 -55.86 249.24 -69.51 249.27 C-72.04 249.28 -74.56 249.25 -77.08 249.23 C-86.75 249.19 -95.82 249.99 -105.29 251.94 C-108.25 252.49 -110.82 252.73 -113.8 252.59 C-115.5 247.64 -117.19 242.7 -118.88 237.75 C-119.49 235.94 -120.11 234.12 -120.73 232.31 C-124.57 221.07 -128.41 209.83 -132.23 198.58 C-132.96 196.43 -133.68 194.29 -134.41 192.14 C-135.48 189 -136.55 185.86 -137.61 182.72 C-138.61 179.78 -139.6 176.85 -140.6 173.92 C-140.9 173.05 -141.19 172.17 -141.5 171.27 C-142.6 168.04 -143.7 164.85 -145 161.69 C-145.8 159.59 -145.8 159.59 -145.8 156.59 C-145.18 156.28 -144.56 155.97 -143.92 155.65 C-131.56 149.44 -119.6 143.28 -108.8 134.59 C-108.23 134.13 -107.65 133.67 -107.06 133.2 C-76.85 108.88 -58.89 75.69 -43.8 40.59 C-43.48 39.87 -43.15 39.14 -42.81 38.39 C-41.03 34.32 -41.03 34.32 -41.59 30.04 C-41.99 29.23 -42.39 28.42 -42.8 27.59 C-43.79 18.45 -43.46 11.11 -37.8 3.59 C-37.21 2.66 -36.61 1.73 -35.99 0.78 C-26.1 -9.12 -10.55 -8.24 0 0 Z " fill="#D3195E" transform="translate(406.8046875,80.41015625)"/>
<path d="M0 0 C2.55 0 5.1 -0.02 7.65 -0.05 C18.17 -0.09 28.17 0.7 38.39 3.32 C40.05 4.98 39.52 6.97 39.53 9.25 C39.53 10.32 39.54 11.39 39.54 12.49 C39.55 14.27 39.55 14.27 39.55 16.08 C39.55 17.32 39.56 18.56 39.56 19.84 C39.57 23.25 39.58 26.66 39.59 30.07 C39.59 32.21 39.59 34.34 39.6 36.47 C39.61 43.16 39.62 49.85 39.63 56.54 C39.63 64.24 39.65 71.94 39.68 79.64 C39.7 85.6 39.71 91.56 39.71 97.52 C39.71 101.08 39.72 104.63 39.73 108.19 C39.75 112.17 39.75 116.15 39.74 120.13 C39.75 121.29 39.76 122.45 39.77 123.65 C39.69 139.07 35.38 150.78 24.84 162.02 C21.07 165.55 17.11 168.23 12.39 170.32 C11.79 170.58 11.18 170.85 10.57 171.12 C0.63 174.82 -10.53 173.76 -20.97 173.75 C-23.68 173.76 -26.4 173.78 -29.12 173.81 C-29.94 173.8 -30.76 173.8 -31.6 173.79 C-36.97 173.86 -40.89 174.99 -45.69 177.41 C-50.59 179.72 -56.3 179.09 -61.31 177.41 C-63.47 176.46 -65.55 175.46 -67.61 174.32 C-67.61 173.66 -67.61 173 -67.61 172.32 C-68.22 172.08 -68.82 171.85 -69.44 171.61 C-78.35 166.31 -81.54 147.17 -84.53 137.96 C-86.01 133.42 -87.5 128.88 -89 124.35 C-89.76 122.04 -90.52 119.72 -91.28 117.41 C-94.84 106.6 -98.49 95.83 -102.18 85.07 C-102.75 83.38 -103.33 81.69 -103.9 80.01 C-106.33 72.92 -108.77 65.83 -111.29 58.78 C-111.68 57.68 -112.07 56.59 -112.47 55.47 C-113.16 53.53 -113.86 51.6 -114.57 49.67 C-114.86 48.85 -115.15 48.04 -115.45 47.2 C-115.7 46.51 -115.96 45.82 -116.21 45.12 C-116.61 43.32 -116.61 43.32 -115.61 40.32 C-113.96 39.42 -113.96 39.42 -111.8 38.69 C-110.99 38.41 -110.18 38.13 -109.35 37.84 C-108.47 37.55 -107.59 37.26 -106.69 36.96 C-105.79 36.65 -104.89 36.35 -103.96 36.03 C-102.06 35.38 -100.15 34.74 -98.24 34.11 C-95.32 33.13 -92.4 32.14 -89.49 31.15 C-87.64 30.52 -85.79 29.9 -83.94 29.27 C-83.06 28.98 -82.19 28.68 -81.29 28.37 C-80.47 28.1 -79.66 27.83 -78.82 27.55 C-78.1 27.31 -77.38 27.07 -76.64 26.83 C-74.61 26.32 -74.61 26.32 -70.61 26.32 C-65.66 40.67 -65.66 40.67 -60.61 55.32 C-47.3 42 -37.84 24.57 -28.61 8.32 C-28.2 7.59 -27.79 6.86 -27.36 6.11 C-27.12 5.52 -26.87 4.93 -26.61 4.32 C-27.11 3.33 -27.11 3.33 -27.61 2.32 C-18.44 0.06 -9.38 -0.02 0 0 Z " fill="#B8C9D8" transform="translate(331.613525390625,328.684326171875)"/>
<path d="M0 0 C4.21 4.11 6.34 8.92 8.39 14.34 C8.84 15.51 8.84 15.51 9.29 16.7 C12.95 26.4 16.18 36.25 19.42 46.09 C21.27 51.71 23.13 57.33 24.99 62.94 C25.36 64.04 25.72 65.13 26.09 66.26 C30.34 79.08 34.74 91.84 39.2 104.59 C40.07 104.43 40.95 104.27 41.85 104.11 C53.19 102.35 64.89 103.52 74.51 110.28 C82.62 117.1 89.17 124.95 91.2 135.59 C92.15 149.56 90.13 159.74 81.42 171.14 C77.09 175.92 71.9 178.75 66.2 181.59 C68.75 191.81 72.16 201.74 75.51 211.71 C76.12 213.55 76.74 215.39 77.35 217.23 C82.44 232.44 87.62 247.62 92.84 262.79 C93.12 263.62 93.41 264.45 93.7 265.31 C94.24 266.86 94.77 268.41 95.31 269.96 C98.23 278.49 99.49 285.69 96.3 294.35 C92.98 301.08 87.85 305.39 81.2 308.59 C74.26 310.9 66.4 310.6 59.76 307.53 C50.21 302.03 46.95 293.7 44.12 283.47 C40.56 271 36.26 258.77 32.08 246.5 C30.9 243.04 29.72 239.58 28.55 236.12 C26.42 229.86 24.29 223.61 22.16 217.36 C20.08 211.25 18 205.15 15.93 199.04 C14 193.39 12.08 187.74 10.15 182.09 C5.01 166.99 -0.12 151.88 -5.24 136.78 C-21.45 88.91 -21.45 88.91 -37.8 41.09 C-38.21 39.91 -38.61 38.74 -39.03 37.53 C-39.39 36.49 -39.75 35.44 -40.12 34.37 C-40.42 33.48 -40.73 32.6 -41.04 31.69 C-41.77 29.57 -41.77 29.57 -42.8 27.59 C-43.6 18.41 -43.5 11.16 -37.8 3.59 C-37.21 2.66 -36.61 1.73 -35.99 0.78 C-26.1 -9.12 -10.55 -8.24 0 0 Z " fill="#F9A529" transform="translate(406.8046875,80.41015625)"/>
<path d="M0 0 C5.66 4.95 5.66 4.95 7.1 8.98 C7.51 10.11 7.51 10.11 7.93 11.26 C8.21 12.07 8.5 12.88 8.79 13.71 C9.25 14.98 9.25 14.98 9.71 16.27 C10.65 18.91 11.58 21.55 12.5 24.19 C12.77 24.97 13.05 25.76 13.33 26.57 C15.21 31.97 17.04 37.39 18.87 42.82 C19.44 44.51 20.02 46.21 20.59 47.9 C21.77 51.4 22.96 54.91 24.14 58.41 C25.65 62.9 27.17 67.4 28.69 71.89 C29.87 75.37 31.04 78.84 32.22 82.32 C32.78 83.98 33.34 85.64 33.9 87.3 C34.68 89.59 35.45 91.89 36.22 94.19 C36.57 95.22 36.57 95.22 36.93 96.26 C38.5 100.96 38.5 100.96 38.5 103.19 C39.16 103.02 39.82 102.86 40.5 102.69 C44.23 102.07 47.72 102.12 51.5 102.19 C42.74 121.42 30.2 138.4 17.5 155.19 C15.5 154.19 15.5 154.19 14.45 151.63 C14.08 150.51 13.71 149.4 13.34 148.25 C12.94 147.05 12.54 145.84 12.12 144.6 C11.92 143.97 11.72 143.34 11.5 142.69 C10.88 140.76 10.24 138.84 9.6 136.91 C6.5 127.48 6.5 127.48 6.5 125.19 C1.73 126.76 -3.04 128.34 -7.8 129.92 C-9.47 130.47 -11.14 131.02 -12.81 131.58 C-22.15 134.67 -31.41 137.84 -40.56 141.44 C-47.56 144.11 -54.41 146.43 -61.61 143.26 C-67.43 139.58 -69.41 133.85 -71.49 127.48 C-71.86 126.36 -72.23 125.23 -72.61 124.08 C-73.2 122.24 -73.2 122.24 -73.81 120.38 C-74.7 117.68 -75.59 114.99 -76.48 112.3 C-76.71 111.58 -76.95 110.87 -77.19 110.13 C-80.3 100.75 -83.49 91.41 -86.69 82.06 C-86.98 81.22 -87.26 80.38 -87.56 79.51 C-88.13 77.85 -88.69 76.18 -89.26 74.52 C-89.82 72.88 -90.38 71.25 -90.93 69.61 C-92.4 65.32 -93.91 61.06 -95.52 56.81 C-96.01 55.48 -96.01 55.48 -96.52 54.12 C-97.14 52.44 -97.79 50.75 -98.45 49.08 C-100.8 42.7 -101.09 37.22 -98.57 30.81 C-92.28 22.99 -81.92 20.9 -72.75 17.94 C-70.82 17.3 -68.9 16.65 -66.97 16.01 C-63.06 14.69 -59.14 13.39 -55.22 12.1 C-49.87 10.33 -44.57 8.46 -39.27 6.55 C-36.92 5.71 -34.57 4.88 -32.22 4.05 C-30.76 3.52 -29.3 2.99 -27.83 2.46 C-8.71 -4.51 -8.71 -4.51 0 0 Z " fill="#FAFBFC" transform="translate(254.5,229.8125)"/>
<path d="M0 0 C31.35 0 62.7 0 95 0 C95 36.3 95 72.6 95 110 C63.65 110 32.3 110 0 110 C0 73.7 0 37.4 0 0 Z " fill="#FEFEFE" transform="translate(224,57)"/>
<path d="M0 0 C1.43 4.07 2.85 8.15 4.27 12.23 C4.76 13.61 5.24 15 5.73 16.38 C6.43 18.38 7.12 20.37 7.81 22.36 C8.23 23.56 8.65 24.76 9.08 26 C10 29 10 29 10 32 C10.99 31.67 11.98 31.34 13 31 C22.84 30.22 31.11 30.68 39.21 36.62 C45.48 42.23 49.06 49.36 50.44 57.64 C50.84 65.87 47.92 73 42.75 79.31 C39.29 83.01 35.43 85.6 31 88 C32.33 93.4 33.86 98.69 35.76 103.91 C44.28 127.56 44.28 127.56 39.31 138.5 C38.58 139.69 37.81 140.86 37 142 C36.28 143.07 35.56 144.14 34.81 145.25 C29.77 150.18 24.54 152.2 17.5 152.5 C12.03 152.31 7.75 150.63 3 148 C3 147.34 3 146.68 3 146 C2.4 145.77 1.79 145.53 1.17 145.29 C-7.74 140 -10.92 120.85 -13.92 111.64 C-15.39 107.1 -16.89 102.57 -18.38 98.03 C-19.15 95.72 -19.91 93.41 -20.67 91.09 C-24.22 80.29 -27.88 69.51 -31.56 58.75 C-32.14 57.06 -32.71 55.38 -33.29 53.69 C-35.71 46.6 -38.16 39.52 -40.68 32.46 C-41.07 31.37 -41.46 30.28 -41.86 29.15 C-42.55 27.21 -43.25 25.28 -43.96 23.35 C-44.39 22.13 -44.39 22.13 -44.84 20.88 C-45.09 20.2 -45.34 19.51 -45.6 18.8 C-46 17 -46 17 -45 14 C-43.35 13.11 -43.35 13.11 -41.19 12.37 C-40.38 12.09 -39.57 11.81 -38.74 11.53 C-37.86 11.23 -36.98 10.94 -36.07 10.64 C-35.18 10.34 -34.28 10.03 -33.35 9.72 C-31.44 9.07 -29.54 8.43 -27.63 7.79 C-24.71 6.82 -21.79 5.83 -18.88 4.83 C-17.03 4.2 -15.18 3.58 -13.32 2.96 C-12.45 2.66 -11.58 2.36 -10.68 2.06 C-9.86 1.79 -9.04 1.52 -8.2 1.24 C-7.49 1 -6.77 0.76 -6.03 0.51 C-4 0 -4 0 0 0 Z " fill="#F9A62A" transform="translate(261,355)"/>
<path d="M0 0 C9.18 6.45 16.55 15.53 18.68 26.71 C19.63 40.68 17.63 50.88 8.9 62.26 C4.15 67.52 -1.44 70.95 -8.32 72.71 C-11.64 64.7 -14.53 56.56 -17.34 48.35 C-17.57 47.68 -17.79 47.01 -18.03 46.33 C-19.24 42.8 -20.44 39.27 -21.65 35.75 C-22.88 32.11 -24.14 28.49 -25.39 24.86 C-26.36 22.05 -27.32 19.24 -28.27 16.44 C-28.73 15.1 -29.19 13.76 -29.66 12.42 C-30.3 10.56 -30.93 8.69 -31.57 6.82 C-31.93 5.76 -32.29 4.69 -32.67 3.6 C-33.35 0.55 -33.17 -1.31 -32.32 -4.29 C-21.19 -6.76 -10.05 -5.58 0 0 Z " fill="#33434A" transform="translate(479.31640625,189.28515625)"/>
<path d="M0 0 C1.23 -0.01 1.23 -0.01 2.49 -0.01 C5.25 -0.02 8.01 -0.02 10.77 -0.01 C12.75 -0.02 14.72 -0.02 16.7 -0.03 C22.07 -0.04 27.45 -0.04 32.82 -0.04 C37.3 -0.04 41.78 -0.04 46.26 -0.05 C56.83 -0.06 67.4 -0.06 77.97 -0.05 C88.88 -0.05 99.8 -0.06 110.71 -0.08 C120.07 -0.1 129.43 -0.11 138.79 -0.1 C144.39 -0.1 149.98 -0.1 155.58 -0.12 C160.84 -0.13 166.1 -0.13 171.36 -0.12 C173.29 -0.11 175.23 -0.12 177.16 -0.12 C179.79 -0.13 182.42 -0.13 185.06 -0.11 C185.83 -0.12 186.6 -0.13 187.39 -0.14 C192.51 -0.08 192.51 -0.08 195.03 1.59 C196.03 3.26 196.03 3.26 195.9 6.32 C195.03 9.26 195.03 9.26 192.03 11.26 C189.35 11.46 186.77 11.53 184.1 11.52 C183.28 11.53 182.46 11.53 181.62 11.53 C178.87 11.54 176.12 11.54 173.38 11.54 C171.41 11.54 169.44 11.54 167.48 11.55 C162.13 11.56 156.78 11.56 151.44 11.56 C146.98 11.56 142.52 11.57 138.06 11.57 C127.55 11.58 117.03 11.58 106.52 11.58 C95.66 11.57 84.8 11.58 73.94 11.6 C64.62 11.62 55.31 11.63 46 11.62 C40.43 11.62 34.86 11.63 29.29 11.64 C24.06 11.65 18.83 11.65 13.59 11.64 C11.67 11.63 9.75 11.64 7.82 11.65 C5.2 11.66 2.58 11.65 -0.04 11.63 C-1.19 11.65 -1.19 11.65 -2.36 11.66 C-7.46 11.6 -7.46 11.6 -9.94 9.93 C-11.56 7.31 -11.35 5.25 -10.97 2.26 C-7.23 -0.23 -4.33 -0.02 0 0 Z " fill="#3A4B54" transform="translate(73.9713134765625,191.7393035888672)"/>
<path d="M0 0 C0.36 1.04 0.71 2.09 1.08 3.16 C1.87 5.47 2.65 7.77 3.44 10.08 C4.99 14.61 6.53 19.14 8.08 23.67 C11 32.24 13.93 40.81 16.89 49.37 C18.1 52.87 19.3 56.37 20.51 59.87 C21.09 61.54 21.66 63.2 22.24 64.87 C23.05 67.19 23.85 69.51 24.65 71.84 C24.89 72.52 25.13 73.21 25.38 73.91 C26.35 76.75 27 78.98 27 82 C11.71 80.96 -1.67 75.41 -12.28 64.17 C-19.42 55.16 -22.2 44.33 -21 33 C-19.19 24.81 -10.3 0 0 0 Z " fill="#D81D62" transform="translate(157,278)"/>
<path d="M0 0 C1.67 -0.01 1.67 -0.01 3.37 -0.03 C5.19 -0.02 5.19 -0.02 7.06 -0.01 C8.34 -0.01 9.62 -0.02 10.95 -0.02 C14.47 -0.04 17.99 -0.03 21.51 -0.02 C25.19 -0.01 28.87 -0.02 32.55 -0.03 C38.74 -0.03 44.92 -0.02 51.11 -0.01 C58.26 0.01 65.41 0 72.56 -0.02 C78.7 -0.03 84.84 -0.03 90.98 -0.02 C94.64 -0.02 98.31 -0.02 101.98 -0.03 C106.06 -0.04 110.15 -0.02 114.24 -0.01 C115.46 -0.01 116.68 -0.02 117.93 -0.03 C119.6 -0.01 119.6 -0.01 121.3 0 C122.75 0 122.75 0 124.23 0 C126.65 0.38 126.65 0.38 128.46 1.71 C130.3 4.29 130.04 6.31 129.65 9.38 C126.28 11.62 125.18 11.63 121.25 11.63 C119.57 11.64 119.57 11.64 117.86 11.65 C116.63 11.65 115.4 11.64 114.13 11.64 C112.84 11.64 111.54 11.65 110.21 11.65 C106.66 11.66 103.1 11.66 99.55 11.65 C95.84 11.64 92.13 11.65 88.41 11.65 C82.18 11.66 75.94 11.65 69.71 11.64 C62.49 11.63 55.28 11.63 48.06 11.65 C41.87 11.65 35.69 11.66 29.5 11.65 C25.8 11.65 22.1 11.65 18.4 11.65 C14.28 11.66 10.16 11.65 6.04 11.64 C4.19 11.65 4.19 11.65 2.3 11.65 C1.19 11.65 0.07 11.64 -1.08 11.63 C-2.06 11.63 -3.03 11.63 -4.04 11.63 C-6.35 11.38 -6.35 11.38 -8.35 9.38 C-8.91 4.16 -8.91 4.16 -7.17 1.71 C-4.69 -0.1 -3.06 0 0 0 Z " fill="#3C4D55" transform="translate(71.351806640625,424.6190490722656)"/>
<path d="M0 0 C7.52 2.66 12.82 7.3 16.74 14.22 C20.61 22.65 21.66 29.7 18.57 38.51 C14.97 46.57 9.11 52.57 1.13 56.39 C0.47 56.39 -0.19 56.39 -0.87 56.39 C-3.22 49.53 -5.57 42.67 -7.91 35.81 C-9 32.63 -10.08 29.44 -11.18 26.26 C-12.43 22.6 -13.68 18.94 -14.93 15.27 C-15.32 14.13 -15.72 12.99 -16.12 11.81 C-16.48 10.75 -16.84 9.69 -17.21 8.59 C-17.53 7.66 -17.85 6.72 -18.18 5.76 C-18.87 3.39 -18.87 3.39 -18.87 0.39 C-13.59 -2.25 -5.61 -1.2 0 0 Z " fill="#D71C61" transform="translate(290.8671875,386.61328125)"/>
<path d="M0 0 C0.82 -0.01 1.65 -0.02 2.49 -0.03 C3.39 -0.02 4.29 -0.01 5.22 -0.01 C6.17 -0.01 7.12 -0.02 8.1 -0.02 C11.24 -0.04 14.39 -0.03 17.54 -0.02 C19.72 -0.02 21.9 -0.02 24.09 -0.03 C28.66 -0.03 33.24 -0.02 37.82 -0.01 C43.69 0.01 49.57 -0 55.44 -0.02 C59.95 -0.03 64.46 -0.03 68.97 -0.02 C71.13 -0.02 73.3 -0.02 75.47 -0.03 C78.49 -0.04 81.52 -0.02 84.54 -0.01 C85.44 -0.01 86.34 -0.02 87.26 -0.03 C93.3 0.04 93.3 0.04 96.51 1.75 C97.95 3.38 97.95 3.38 98.38 5.88 C97.87 8.83 97.26 9.55 94.95 11.38 C93.02 11.76 93.02 11.76 90.8 11.76 C89.96 11.76 89.12 11.77 88.25 11.78 C87.33 11.77 86.41 11.76 85.46 11.75 C84.48 11.76 83.51 11.76 82.51 11.76 C79.29 11.77 76.07 11.76 72.85 11.74 C70.62 11.74 68.38 11.74 66.15 11.75 C61.47 11.75 56.79 11.74 52.1 11.72 C46.09 11.69 40.08 11.69 34.07 11.7 C29.46 11.7 24.85 11.7 20.24 11.69 C18.02 11.68 15.8 11.68 13.59 11.68 C10.49 11.68 7.4 11.67 4.3 11.66 C3.38 11.66 2.46 11.66 1.51 11.66 C0.67 11.66 -0.17 11.65 -1.04 11.64 C-1.77 11.64 -2.5 11.64 -3.25 11.64 C-5.05 11.38 -5.05 11.38 -7.05 9.38 C-7.61 4.12 -7.61 4.12 -5.79 1.71 C-3.68 0.09 -2.64 0 0 0 Z " fill="#3A4B54" transform="translate(70.05430603027344,144.61904907226563)"/>
<path d="M0 0 C1.26 -0.01 1.26 -0.01 2.54 -0.02 C3.47 -0.02 4.39 -0.02 5.34 -0.01 C6.31 -0.02 7.28 -0.02 8.28 -0.03 C11.51 -0.04 14.73 -0.04 17.95 -0.04 C20.18 -0.04 22.41 -0.05 24.64 -0.05 C29.33 -0.06 34.01 -0.06 38.69 -0.05 C44.7 -0.05 50.71 -0.07 56.73 -0.09 C61.34 -0.1 65.95 -0.1 70.56 -0.1 C72.77 -0.1 74.99 -0.11 77.21 -0.12 C80.3 -0.13 83.4 -0.12 86.49 -0.11 C87.88 -0.12 87.88 -0.12 89.29 -0.13 C90.13 -0.13 90.97 -0.12 91.84 -0.11 C92.57 -0.11 93.3 -0.11 94.06 -0.11 C96.57 0.37 97.48 1.22 98.98 3.26 C98.86 6.32 98.86 6.32 97.98 9.26 C94.94 11.29 94.34 11.51 90.92 11.52 C90.1 11.53 89.27 11.54 88.42 11.54 C87.52 11.54 86.62 11.54 85.69 11.54 C84.74 11.54 83.79 11.55 82.81 11.55 C79.66 11.56 76.51 11.56 73.36 11.56 C71.17 11.57 68.99 11.57 66.8 11.57 C62.22 11.58 57.63 11.58 53.05 11.58 C47.17 11.57 41.29 11.59 35.41 11.61 C30.89 11.63 26.38 11.63 21.86 11.62 C19.7 11.62 17.53 11.63 15.36 11.64 C12.33 11.65 9.3 11.64 6.27 11.63 C5.37 11.64 4.47 11.65 3.54 11.66 C2.31 11.65 2.31 11.65 1.04 11.63 C0.33 11.64 -0.39 11.64 -1.13 11.64 C-3.61 11.14 -4.5 10.26 -6.02 8.26 C-6.33 5.2 -6.33 5.2 -6.02 2.26 C-3.65 -0.1 -3.21 0.01 0 0 Z " fill="#3A4B54" transform="translate(69.01670837402344,51.73930358886719)"/>
<path d="M0 0 C1.31 -0.01 1.31 -0.01 2.65 -0.02 C3.61 -0.02 4.57 -0.02 5.56 -0.01 C7.07 -0.02 7.07 -0.02 8.62 -0.03 C11.97 -0.04 15.32 -0.04 18.67 -0.04 C20.99 -0.04 23.31 -0.05 25.64 -0.05 C30.51 -0.06 35.38 -0.06 40.25 -0.05 C46.5 -0.05 52.76 -0.07 59.01 -0.09 C63.81 -0.1 68.6 -0.1 73.4 -0.1 C75.7 -0.1 78.01 -0.11 80.32 -0.12 C83.54 -0.13 86.76 -0.12 89.98 -0.11 C90.93 -0.12 91.89 -0.13 92.88 -0.13 C93.76 -0.13 94.63 -0.12 95.54 -0.11 C96.3 -0.11 97.06 -0.11 97.84 -0.11 C100.4 0.37 101.31 1.17 102.83 3.26 C102.4 8.7 102.4 8.7 100.83 10.26 C99.47 10.36 98.1 10.39 96.74 10.39 C95.42 10.4 95.42 10.4 94.07 10.41 C93.09 10.41 92.12 10.41 91.11 10.41 C90.09 10.41 89.07 10.41 88.02 10.42 C84.62 10.43 81.23 10.43 77.84 10.43 C75.49 10.43 73.14 10.44 70.79 10.44 C65.86 10.44 60.93 10.45 56.01 10.45 C49.67 10.45 43.34 10.46 37.01 10.48 C32.16 10.49 27.31 10.49 22.46 10.49 C20.13 10.49 17.79 10.5 15.46 10.5 C12.2 10.51 8.94 10.51 5.68 10.5 C4.22 10.51 4.22 10.51 2.73 10.52 C1.85 10.52 0.96 10.51 0.05 10.51 C-0.72 10.51 -1.49 10.51 -2.29 10.51 C-4.17 10.26 -4.17 10.26 -6.17 8.26 C-6.42 5.26 -6.42 5.26 -6.17 2.26 C-3.77 -0.13 -3.26 0.01 0 0 Z " fill="#36474F" transform="translate(69.16856384277344,378.7393035888672)"/>
<path d="M0 0 C1.26 -0.01 1.26 -0.01 2.54 -0.02 C3.47 -0.02 4.39 -0.02 5.34 -0.01 C6.31 -0.02 7.28 -0.02 8.28 -0.03 C11.51 -0.04 14.73 -0.04 17.95 -0.04 C20.18 -0.04 22.41 -0.05 24.64 -0.05 C29.33 -0.06 34.01 -0.06 38.69 -0.05 C44.7 -0.05 50.71 -0.07 56.73 -0.09 C61.34 -0.1 65.95 -0.1 70.56 -0.1 C72.77 -0.1 74.99 -0.11 77.21 -0.12 C80.3 -0.13 83.4 -0.12 86.49 -0.11 C87.88 -0.12 87.88 -0.12 89.29 -0.13 C90.13 -0.13 90.97 -0.12 91.84 -0.11 C92.57 -0.11 93.3 -0.11 94.06 -0.11 C96.57 0.37 97.48 1.22 98.98 3.26 C98.8 6.39 98.8 6.39 97.98 9.26 C95.71 10.4 94.48 10.39 91.96 10.39 C90.7 10.4 90.7 10.4 89.41 10.41 C88.49 10.41 87.56 10.41 86.61 10.41 C85.15 10.41 85.15 10.41 83.66 10.42 C80.44 10.43 77.21 10.43 73.98 10.43 C71.75 10.43 69.51 10.44 67.28 10.44 C62.59 10.44 57.91 10.45 53.22 10.45 C47.2 10.45 41.18 10.46 35.16 10.48 C30.54 10.49 25.93 10.49 21.31 10.49 C19.09 10.49 16.87 10.5 14.65 10.5 C11.55 10.51 8.46 10.51 5.36 10.5 C3.97 10.51 3.97 10.51 2.56 10.52 C1.71 10.52 0.87 10.51 0.01 10.51 C-0.73 10.51 -1.46 10.51 -2.21 10.51 C-4.02 10.26 -4.02 10.26 -6.02 8.26 C-6.27 5.26 -6.27 5.26 -6.02 2.26 C-3.65 -0.1 -3.21 0.01 0 0 Z " fill="#36474F" transform="translate(69.01670837402344,98.73930358886719)"/>
<path d="M0 0 C1.08 -0.01 1.08 -0.01 2.17 -0.02 C4.55 -0.03 6.93 -0.03 9.3 -0.03 C10.95 -0.03 12.6 -0.03 14.25 -0.04 C17.71 -0.05 21.17 -0.05 24.63 -0.04 C29.07 -0.04 33.5 -0.05 37.94 -0.08 C41.35 -0.09 44.75 -0.09 48.16 -0.09 C49.8 -0.09 51.43 -0.09 53.07 -0.1 C55.35 -0.12 57.64 -0.11 59.93 -0.1 C61.88 -0.1 61.88 -0.1 63.87 -0.1 C67.03 0.27 67.03 0.27 68.98 1.64 C70.03 3.27 70.03 3.27 69.84 5.84 C69.03 8.27 69.03 8.27 67.03 10.27 C63.99 10.53 63.99 10.53 60.04 10.53 C59.32 10.54 58.6 10.54 57.86 10.54 C55.48 10.55 53.1 10.55 50.72 10.54 C49.06 10.54 47.41 10.54 45.76 10.55 C42.3 10.55 38.83 10.54 35.37 10.54 C30.92 10.52 26.48 10.53 22.03 10.54 C18.62 10.55 15.21 10.55 11.8 10.54 C10.16 10.54 8.52 10.54 6.88 10.55 C4.59 10.55 2.3 10.54 0.02 10.53 C-1.94 10.53 -1.94 10.53 -3.94 10.53 C-6.97 10.27 -6.97 10.27 -8.97 8.27 C-9.22 5.27 -9.22 5.27 -8.97 2.27 C-6.09 -0.61 -4.04 0.01 0 0 Z " fill="#36474F" transform="translate(71.972412109375,238.725341796875)"/>
<path d="M0 0 C1.57 -0.02 1.57 -0.02 3.18 -0.04 C4.87 -0.04 4.87 -0.04 6.6 -0.05 C8.35 -0.06 8.35 -0.06 10.13 -0.07 C12.59 -0.08 15.05 -0.08 17.51 -0.08 C21.28 -0.08 25.04 -0.12 28.81 -0.16 C31.2 -0.16 33.59 -0.17 35.98 -0.17 C37.11 -0.18 38.24 -0.2 39.4 -0.21 C40.45 -0.21 41.5 -0.2 42.59 -0.2 C43.51 -0.2 44.43 -0.2 45.38 -0.2 C48.63 0.44 49.85 1.72 51.86 4.29 C51.8 6.92 51.8 6.92 50.86 9.29 C47.56 11.49 46.54 11.55 42.7 11.57 C41.65 11.57 40.6 11.58 39.51 11.59 C38.38 11.59 37.25 11.59 36.08 11.59 C34.91 11.6 33.75 11.6 32.55 11.6 C30.08 11.61 27.62 11.61 25.15 11.61 C21.37 11.6 17.59 11.63 13.81 11.65 C11.42 11.65 9.03 11.65 6.64 11.65 C4.94 11.67 4.94 11.67 3.2 11.68 C2.15 11.68 1.1 11.67 0.02 11.66 C-1.37 11.66 -1.37 11.66 -2.79 11.66 C-5.14 11.29 -5.14 11.29 -6.94 9.96 C-8.8 7.38 -8.53 5.36 -8.14 2.29 C-4.85 0.1 -3.83 0.03 0 0 Z " fill="#3B4C54" transform="translate(71.142333984375,331.70947265625)"/>
<path d="M0 0 C1.94 1.19 1.94 1.19 3 3 C3 5.5 3 5.5 2 8 C-2.42 11.24 -7.59 12.79 -12.72 14.57 C-13.65 14.9 -14.59 15.23 -15.55 15.57 C-17.53 16.26 -19.5 16.95 -21.47 17.64 C-24.49 18.68 -27.51 19.75 -30.52 20.81 C-32.44 21.49 -34.36 22.16 -36.28 22.82 C-37.18 23.14 -38.08 23.46 -39.01 23.79 C-39.85 24.08 -40.69 24.37 -41.56 24.67 C-42.3 24.93 -43.04 25.19 -43.8 25.45 C-46.31 26.08 -48.42 26.21 -51 26 C-53.36 23.88 -53.95 22.66 -54.19 19.5 C-52.12 15.15 -47.25 13.87 -42.91 12.19 C-40.77 11.44 -38.61 10.72 -36.45 10.02 C-35.67 9.76 -34.89 9.5 -34.08 9.24 C-31.62 8.42 -29.15 7.62 -26.69 6.81 C-25.01 6.26 -23.34 5.71 -21.67 5.16 C-18.62 4.15 -15.57 3.15 -12.52 2.15 C-8.05 0.69 -4.74 -0.39 0 0 Z " fill="#3B4C54" transform="translate(239,260)"/>
<path d="M0 0 C2 2 2 2 2.44 4.94 C2 8 2 8 0.05 9.48 C-3.93 11.46 -8 12.9 -12.21 14.32 C-13.1 14.62 -13.98 14.93 -14.9 15.24 C-16.77 15.88 -18.64 16.52 -20.51 17.15 C-23.36 18.12 -26.21 19.1 -29.05 20.08 C-30.88 20.7 -32.7 21.33 -34.52 21.95 C-35.37 22.24 -36.21 22.53 -37.08 22.83 C-41.73 24.39 -46.1 25.61 -51 26 C-52.94 24.88 -52.94 24.88 -54 23 C-54.44 20.5 -54.44 20.5 -54 18 C-51.39 15.7 -48.87 14.41 -45.6 13.28 C-44.74 12.98 -43.88 12.68 -42.99 12.37 C-42.07 12.06 -41.15 11.75 -40.2 11.43 C-39.24 11.1 -38.28 10.77 -37.3 10.43 C-35.27 9.74 -33.25 9.05 -31.23 8.36 C-28.14 7.32 -25.06 6.25 -21.97 5.19 C-20.01 4.51 -18.04 3.84 -16.07 3.18 C-14.69 2.7 -14.69 2.7 -13.29 2.21 C-8.78 0.7 -4.82 -0.62 0 0 Z " fill="#3B4B53" transform="translate(249,288)"/>
<path d="M0 0 C1.81 1.19 1.81 1.19 3 3 C3.44 5.5 3.44 5.5 3 8 C0.36 10.34 -2.18 11.6 -5.51 12.72 C-6.39 13.02 -7.27 13.32 -8.19 13.63 C-9.13 13.94 -10.08 14.25 -11.06 14.57 C-12.04 14.9 -13.02 15.23 -14.03 15.57 C-16.1 16.26 -18.18 16.95 -20.25 17.64 C-23.43 18.68 -26.59 19.75 -29.76 20.81 C-31.78 21.49 -33.79 22.16 -35.81 22.82 C-37.23 23.3 -37.23 23.3 -38.68 23.79 C-39.56 24.08 -40.45 24.37 -41.36 24.67 C-42.14 24.93 -42.92 25.19 -43.72 25.45 C-46.26 26.06 -48.39 26.23 -51 26 C-53 24 -53 24 -53.38 21.06 C-53 18 -53 18 -51.25 16.42 C-49.04 15.03 -47.05 14.13 -44.59 13.28 C-43.72 12.98 -42.86 12.68 -41.97 12.37 C-41.04 12.06 -40.11 11.75 -39.16 11.43 C-38.2 11.1 -37.24 10.77 -36.25 10.43 C-34.23 9.74 -32.2 9.05 -30.17 8.36 C-27.07 7.32 -23.98 6.25 -20.88 5.19 C-18.91 4.51 -16.94 3.84 -14.97 3.18 C-14.05 2.86 -13.12 2.54 -12.17 2.21 C-11.3 1.92 -10.44 1.63 -9.54 1.33 C-8.78 1.07 -8.03 0.81 -7.24 0.55 C-4.73 -0.07 -2.58 -0.17 0 0 Z " fill="#3B4B53" transform="translate(258,316)"/>
<path d="M0 0 C1.33 -0.01 1.33 -0.01 2.69 -0.03 C3.65 -0.02 4.6 -0.02 5.59 -0.01 C6.57 -0.01 7.56 -0.02 8.57 -0.02 C10.66 -0.02 12.74 -0.02 14.82 -0 C18.01 0.01 21.2 -0 24.39 -0.02 C26.41 -0.02 28.44 -0.02 30.46 -0.01 C31.42 -0.02 32.37 -0.02 33.35 -0.03 C34.69 -0.01 34.69 -0.01 36.05 0 C36.84 0 37.62 0 38.42 0.01 C41.17 0.49 42.57 1.49 44.59 3.39 C45.03 5.89 45.03 5.89 44.59 8.39 C42.99 10.51 42.11 11.3 39.46 11.76 C38.64 11.76 37.82 11.76 36.97 11.76 C35.57 11.77 35.57 11.77 34.14 11.78 C33.13 11.77 32.12 11.76 31.09 11.75 C30.05 11.75 29.02 11.75 27.95 11.75 C25.77 11.75 23.58 11.74 21.4 11.72 C18.04 11.7 14.68 11.7 11.33 11.71 C9.21 11.7 7.08 11.7 4.96 11.69 C3.95 11.69 2.95 11.69 1.91 11.69 C0.98 11.68 0.05 11.67 -0.91 11.66 C-1.74 11.66 -2.56 11.65 -3.4 11.65 C-5.41 11.39 -5.41 11.39 -7.41 9.39 C-7.97 4.14 -7.97 4.14 -6.16 1.72 C-3.95 0.04 -2.76 0.01 0 0 Z " fill="#3C4D55" transform="translate(70.407958984375,284.61181640625)"/>
</svg>
